<?xml version="1.0" encoding="UTF-8"?>
<svg width="795px" height="125px" viewBox="0 0 795 125" version="1.1" xmlns="http://www.w3.org/2000/svg" xmlns:xlink="http://www.w3.org/1999/xlink">
    <g id="logo-gray" fill="#939497">
        <path d="M166.76,0 L181.973,0 L181.973,36.444 L182.242,36.444 C186.379,29.543 195.053,25.262 202.794,25.262 C224.544,25.262 235.091,42.386 235.091,63.234 C235.091,82.418 225.75,100.504 205.328,100.504 C195.986,100.504 185.977,98.162 181.438,88.77 L181.174,88.77 L181.174,98.576 L166.759,98.576 L166.759,0.002 L166.76,0 Z M200.79,37.687 C187.983,37.687 181.439,47.767 181.439,62.952 C181.439,77.306 188.515,88.081 200.79,88.081 C214.672,88.081 219.876,75.379 219.876,62.952 C219.866,49.978 213.326,37.687 200.786,37.687 L200.79,37.687 Z" id="b"></path>
        <path d="M352.943,25.4500008 C343.868,25.4500008 335.992,30.2810008 331.454,38.1550008 L331.189,37.8750008 L331.189,27.3850008 L316.775,27.3850008 L316.775,88.1730008 C308.098,88.2720008 307.29,88.2720008 306.628,88.2720008 C303.826,88.2720008 303.024,86.7530008 303.024,82.8870008 L303.024,46.1590008 C303.024,31.1150008 288.878,25.4500008 275.395,25.4500008 C260.181,25.4500008 245.103,30.8320008 244.039,49.1990008 L259.249,49.1990008 C259.919,41.4670008 265.921,37.8750008 274.463,37.8750008 C280.601,37.8750008 288.743,39.3980008 288.743,47.5420008 C288.743,56.7910008 279.001,55.5480008 268.057,57.6220008 C255.244,59.1360008 241.5,62.0430008 241.5,79.8440008 C241.5,93.7930008 252.709,100.692001 265.119,100.692001 C273.262,100.692001 283.002,98.0680008 289.011,92.0040008 C290.207,98.4880008 294.617,100.692001 300.754,100.692001 C303.289,100.692001 308.093,99.7290008 331.893,98.9000008 L331.893,98.7600008 L331.987,98.7600008 L331.987,56.6570008 C331.987,46.1610008 338.528,37.8770008 348.669,37.8770008 C357.61,37.8770008 361.885,42.7120008 362.149,53.8920008 L362.149,98.7620008 L377.368,98.7620008 L377.368,49.7530008 C377.398,33.7390008 367.918,25.4520008 352.968,25.4520008 L352.943,25.4500008 Z M287.838,74.7410008 C287.838,84.6800008 277.428,88.2730008 270.755,88.2730008 C265.415,88.2730008 256.738,86.1950008 256.738,79.1590008 C256.738,70.8720008 262.613,68.3860008 269.155,67.2800008 C275.825,66.0390008 283.166,66.1820008 287.838,63.0060008 L287.838,74.7410008 L287.838,74.7410008 Z" id="an"></path>
        <path d="M455.71,98.571 L441.295,98.571 L441.295,88.906 L441.031,88.906 C437.028,97.051 428.35,100.501 419.676,100.501 C397.926,100.501 387.38,83.794 387.38,62.399 C387.38,36.582 402.195,25.261 417.278,25.261 C425.948,25.261 435.557,28.576 440.229,36.441 L440.499,36.441 L440.499,0 L455.711,0 L455.711,98.573 L455.71,98.571 Z M421.68,88.08 C435.291,88.08 441.031,75.239 441.031,62.812 C441.031,47.079 433.692,37.685 421.945,37.685 C407.664,37.685 402.593,50.802 402.593,63.639 C402.593,75.927 408.463,88.08 421.683,88.08 L421.68,88.08 Z" id="d"></path>
        <path d="M516.17,51.271 C514.968,42.573 508.83,37.876 500.423,37.876 C492.545,37.876 481.471,42.158 481.471,63.834 C481.471,75.708 486.54,88.273 499.755,88.273 C508.562,88.273 514.698,82.192 516.17,71.975 L531.383,71.975 C528.579,90.474 517.505,100.692 499.755,100.692 C478.134,100.692 466.257,84.819 466.257,63.834 C466.257,42.298 477.601,25.454 500.288,25.454 C516.303,25.454 529.919,33.737 531.383,51.272 L516.193,51.272 L516.17,51.271 Z" id="c"></path>
        <path d="M689.68,25.45 C679.672,25.45 673.132,30.009 668.062,37.323 C664.989,29.182 657.115,25.45 648.709,25.45 C637.763,25.45 632.024,30.281 627.488,37.323 L627.088,37.323 L627.088,27.385 L612.668,27.385 L612.668,88.173 C603.992,88.272 603.185,88.272 602.518,88.272 C599.715,88.272 598.918,86.753 598.918,82.887 L598.918,46.159 C598.918,31.115 584.772,25.45 571.287,25.45 C556.077,25.45 540.994,30.832 539.925,49.199 L555.144,49.199 C555.807,41.467 561.815,37.875 570.357,37.875 C576.495,37.875 584.637,39.398 584.637,47.542 C584.637,56.791 574.893,55.548 563.949,57.622 C551.137,59.136 537.392,62.043 537.392,79.844 C537.392,93.793 548.6,100.692 561.013,100.692 C569.155,100.692 578.897,98.068 584.901,92.004 C586.103,98.488 590.505,100.692 596.648,100.692 C599.183,100.692 603.988,99.729 627.568,98.9 L627.568,98.76 L627.881,98.76 L627.881,56.38 C627.881,44.507 635.091,37.877 642.965,37.877 C652.173,37.877 655.111,43.12 655.111,52.93 L655.111,98.762 L670.322,98.762 L670.322,56.931 C670.322,44.918 674.725,37.878 685.003,37.878 C696.881,37.878 697.548,45.747 697.548,57.072 L697.548,98.762 L712.761,98.762 L712.761,49.477 C712.771,32.078 704.231,25.452 689.691,25.452 L689.68,25.45 Z M583.711,74.741 C583.711,84.68 573.304,88.273 566.627,88.273 C561.292,88.273 552.616,86.195 552.616,79.159 C552.616,70.872 558.491,68.386 565.026,67.28 C571.703,66.039 579.043,66.182 583.711,63.006 L583.711,74.741 L583.711,74.741 Z" id="am"></path>
        <path d="M726.52,27.385 L740.934,27.385 L740.934,37.049 L741.198,37.049 C745.47,28.906 753.743,25.45 762.552,25.45 C784.306,25.45 794.85,42.574 794.85,63.422 C794.85,82.606 785.505,100.692 765.09,100.692 C756.282,100.692 746.803,97.379 742.002,89.516 L741.732,89.516 L741.732,125.126 L726.519,125.126 L726.519,27.391 L726.52,27.385 Z M760.55,37.875 C747.737,37.875 741.196,47.955 741.196,63.14 C741.196,77.494 748.27,88.269 760.55,88.269 C774.427,88.269 779.636,75.567 779.636,63.14 C779.636,50.166 773.086,37.875 760.546,37.875 L760.55,37.875 Z" id="p"></path>
        <polygon id="rhomboid" points="113.878 98.165 0 98.165 53.179 0 167.058 0"></polygon>
    </g>
</svg>